<?xml version="1.0" encoding="UTF-8"?>
<!DOCTYPE svg PUBLIC "-//W3C//DTD SVG 1.1//EN" "http://www.w3.org/Graphics/SVG/1.1/DTD/svg11.dtd">
<!-- Creator: CorelDRAW -->
<svg xmlns="http://www.w3.org/2000/svg" xml:space="preserve" width="202.102mm" height="214.007mm" version="1.1" style="shape-rendering:geometricPrecision; text-rendering:geometricPrecision; image-rendering:optimizeQuality; fill-rule:evenodd; clip-rule:evenodd"
viewBox="0 0 20087.94 21271.29"
 xmlns:xlink="http://www.w3.org/1999/xlink"
 xmlns:xodm="http://www.corel.com/coreldraw/odm/2003">
 <defs>
  <style type="text/css">
   <![CDATA[
    .str0 {stroke:#373435;stroke-width:16.83;stroke-miterlimit:22.9256}
    .fil0 {fill:#373435}
   ]]>
  </style>
 </defs>
 <g id="Camada_x0020_2">
  <metadata id="CorelCorpID_0Corel-Layer"/>
  <path class="fil0 str0" d="M905.17 19752.54c67.52,-465.62 272.52,-1389.28 877.05,-2078.45 841.54,-959.36 1060.35,-1068.77 1060.35,-1068.77 0,0 429.18,-101 589.07,193.55 159.9,294.55 143.07,446.03 143.07,446.03 0,0 159.9,-151.49 151.48,-446.03 -8.42,-294.54 -151.49,-437.6 -168.32,-597.49 -16.83,-159.9 117.82,-252.46 117.82,-252.46 0,0 633.57,-506.76 2692.68,-1344.87 -1.16,477.95 -57.81,900.31 -125.97,1008.24 -100.99,159.9 -353.45,92.58 -353.45,92.58 0,0 -143.07,-126.23 -336.62,-109.4 -193.55,16.83 -311.37,143.06 -311.37,143.06 0,0 387.1,-25.25 496.51,176.72 109.4,201.97 126.23,412.36 126.23,412.36 0,0 67.32,185.13 -277.71,471.26 -345.03,286.13 -488.1,412.35 -605.91,328.2 -117.81,-84.15 -210.39,-311.37 -277.71,-462.84 -67.32,-151.48 -134.64,-286.12 -294.54,-403.94 -159.9,-117.82 -319.79,-159.9 -319.79,-159.9 0,0 286.13,269.29 311.37,496.51 25.25,227.22 25.25,227.22 25.25,227.22 0,0 8.42,286.13 -42.07,387.11 -50.49,100.99 -117.82,227.22 -117.82,227.22 0,0 -1051.92,201.97 -1497.94,403.94 -446.03,201.97 -446.03,201.97 -446.03,201.97 0,0 -538.58,311.37 -774.22,622.74 -235.64,311.37 -378.7,530.18 -530.17,849.97 -58.9,124.35 -92.36,195.24 -111.24,235.47zm16487.71 -17057.95c0,0 -252.46,-235.63 -429.19,-218.8 -176.72,16.83 -288.93,138.48 -305.76,256.29 -16.47,115.36 -25.08,260.51 95.38,332.78 84.14,50.49 235.63,84.15 361.86,-25.25 126.23,-109.39 277.71,-345.03 277.71,-345.03zm-2945.4 6479.89c0,0 16.83,-143.06 -84.16,-193.55 -100.99,-50.49 -193.55,-8.41 -218.8,50.49 -20.54,47.96 -47.28,164.7 112.6,198.36 159.89,33.67 190.35,-55.3 190.35,-55.3zm-12345.47 4460.2c-25.65,-179.63 -54.74,-219.35 -172.55,-261.44 -117.81,-42.08 -313.95,-7.64 -165.05,165.89 148.9,173.53 337.6,95.55 337.6,95.55zm4537.73 860.33c43.72,-17.36 87.91,-34.83 132.84,-52.45 1194.92,-468.68 1913.14,-765.74 2332.2,-945.42 -25.16,107.44 -53.55,219.25 -85.27,331.09 -159.9,563.84 -185.13,1338.07 -572.25,1195 -387.11,-143.07 -420.77,-151.48 -656.41,-151.48 -235.64,0 -446.03,218.8 -446.03,218.8 0,0 429.19,-134.65 614.33,50.49 185.14,185.14 294.54,530.17 294.54,530.17 0,0 -538.58,1144.5 -1649.42,1649.43 -1110.84,504.93 -2305.84,706.9 -2305.84,706.9 0,0 -849.96,92.58 -1716.75,631.16 -866.79,538.58 -1396.97,1186.58 -1396.97,1186.58 0,0 420.78,-1026.68 942.53,-1363.3 521.75,-336.62 1573.69,-715.33 2179.6,-774.23 605.91,-58.9 1523.19,-614.33 1758.83,-1110.84 235.64,-496.51 370.28,-934.11 370.28,-934.11 0,0 269.3,-143.05 488.1,-33.66 218.8,109.39 319.78,294.54 319.78,294.54 0,0 42.08,-420.77 -218.8,-580.67 -260.88,-159.9 -260.88,-159.9 -260.88,-159.9l-151.48 -151.48c0,0 37.41,-272.58 27.06,-536.62zm2678.88 -1090.64c245.53,-108 323.63,-148.39 323.63,-148.39 0,0 345.04,58.9 446.03,235.63 100.99,176.72 92.57,454.43 92.57,454.43 0,0 218.8,-269.28 151.48,-563.83 -67.32,-294.55 -58.91,-370.29 -25.25,-437.61 33.67,-67.32 33.67,-67.32 33.67,-67.32 0,0 648,-311.37 1312.81,-664.82 664.81,-353.45 1119.25,-681.65 1119.25,-681.65 0,0 395.53,42.07 513.35,252.46 117.81,210.39 151.48,403.94 151.48,403.94 0,0 134.65,-193.55 75.74,-446.02 -58.91,-252.46 -185.14,-378.71 -159.9,-471.27 19.69,-72.21 500.29,-380.01 1050.29,-791.53 6.94,33.17 15.79,64.38 26.9,93.05 100.99,260.88 227.22,454.43 496.51,555.42 269.29,100.99 454.42,92.57 572.25,-8.42 117.82,-100.99 168.31,-210.38 126.23,-336.61 -42.07,-126.23 -176.71,-159.9 -260.87,-134.65 -84.16,25.25 193.55,-8.42 168.31,168.31 -25.25,176.72 -84.16,210.39 -84.16,210.39 0,0 -117.1,115.07 -302.96,67.32 -368.93,-94.79 -603.35,-348.27 -663.85,-673.81 130.41,-98.81 263.61,-202.95 394.56,-310.8 715.32,-589.07 908.87,-774.22 908.87,-774.22 0,0 252.46,-109.4 353.45,42.07 100.99,151.48 143.06,361.87 143.06,361.87 0,0 134.64,-168.32 100.99,-336.62 -33.66,-168.31 -210.38,-328.2 -193.55,-420.77 16.83,-92.57 631.16,-715.32 782.64,-959.36 151.48,-244.04 547,-858.38 681.65,-858.38 134.65,0 185.14,0.01 235.64,84.16 50.49,84.15 50.49,84.15 50.49,84.15l25.25 58.91c0,0 58.9,-201.97 -16.84,-302.96 -75.74,-100.99 -185.14,-227.21 -176.72,-269.29 8.42,-42.08 387.11,-799.47 437.61,-1447.46 50.49,-647.99 -16.84,-1060.35 16.83,-1136.09 33.67,-75.74 75.75,-100.99 117.82,-75.74 42.07,25.25 75.74,58.91 75.74,58.91 0,0 25.25,-100.99 -75.74,-159.9 -100.99,-58.91 -100.99,-58.91 -100.99,-58.91 0,0 -75.75,0.01 -92.58,-58.9 -16.83,-58.91 -94.14,-482.56 -235.63,-748.98 -115.07,-216.67 -185.14,-403.94 -361.87,-572.25 0,0 -8.42,-109.4 -50.49,-336.62 -42.07,-227.22 -143.06,-858.37 134.65,-1245.48 277.71,-387.11 504.93,-530.17 597.49,-580.67 92.57,-50.49 92.57,-50.49 92.57,-50.49 0,0 605.92,-361.86 1001.45,-252.46 395.52,109.39 530.17,412.35 530.17,412.35 0,0 75.74,252.46 -33.67,361.87 -109.4,109.4 -244.04,109.4 -370.28,58.91 -126.23,-50.49 -134.65,-218.81 -134.65,-218.81 0,0 -33.66,176.72 58.91,252.46 92.57,75.74 302.96,151.48 403.94,84.16 100.99,-67.32 151.48,-117.81 151.48,-117.81 0,0 67.33,33.66 126.23,16.83 58.9,-16.83 -34.04,-16.24 -59.1,-83.86 -25.06,-67.62 67.52,-387.4 -142.87,-597.79 -210.39,-210.39 -210.39,-210.39 -210.39,-210.39 0,0 -185.14,-117.82 -429.19,-100.99 -244.04,16.84 -244.04,16.84 -244.04,16.84 0,0 -420.78,50.48 -740.56,260.87 -319.78,210.39 -681.64,496.52 -799.46,791.06 -117.82,294.54 -134.66,605.91 -117.82,807.88 16.84,201.97 16.84,201.97 16.84,201.97l58.9 345.03c0,0 -143.07,-117.81 -328.2,-117.81 -185.13,0 -429.19,50.48 -496.51,244.04 -67.32,193.56 -63.13,441.82 42.07,547.01 105.2,105.19 294.54,185.13 479.68,67.32 185.14,-117.81 403.94,-387.11 403.94,-387.11 -25.5,29.79 147.79,108.43 311.37,513.35 167.35,414.21 235.64,563.84 260.88,1136.09 25.25,572.25 8.41,1051.93 -134.65,1085.59 -143.06,33.67 -159.9,16.83 -277.71,100.99 -117.81,84.16 -117.81,84.16 -117.81,84.16 0,0 134.65,-50.49 227.22,-8.42 92.57,42.07 151.48,109.4 126.23,210.39 -25.25,100.99 -126.23,597.49 -454.43,1102.42 -328.2,504.93 -538.6,942.53 -673.24,883.62 -134.64,-58.91 -168.3,-143.06 -311.37,-176.72 -143.07,-33.67 -370.29,50.49 -370.29,50.49 0,0 210.39,-16.84 260.88,67.32 50.49,84.16 176.71,244.04 117.81,429.19 -58.9,185.14 -639.58,774.23 -1312.81,1321.23 -375.21,304.85 -559.56,465.9 -669.68,515.27 42.85,-374.37 118.37,-707.74 122.68,-767.74 4.43,-61.68 -16.83,-117.81 -16.83,-117.81 0,0 201.97,-185.14 117.81,-353.45 -84.16,-168.31 -134.65,-218.81 -134.65,-218.81 0,0 67.33,-75.74 67.33,-244.04 0,-168.31 0,-185.14 0,-185.14 0,0 -33.66,201.98 -176.72,244.05 -143.07,42.07 -227.22,42.07 -227.22,42.07 0,0 -302.96,-101 -605.91,-109.4 -302.96,-8.41 -791.06,33.67 -791.06,33.67 0,0 -50.49,-193.56 -151.48,-336.62 -100.99,-143.06 -277.71,-244.04 -277.71,-244.04 0,0 126.23,193.55 100.99,328.2 -25.25,134.65 -84.16,294.54 -84.16,294.54 0,0 -555.41,100.99 -967.77,336.62 -412.36,235.64 -723.74,437.61 -950.95,690.07 -227.22,252.46 -319.77,-126.23 -563.83,-109.4 -244.05,16.83 -471.27,143.06 -471.27,143.06 0,0 311.37,-58.9 429.19,143.07 117.82,201.97 134.65,370.28 134.65,370.28 0,0 -353.45,580.67 -454.43,934.11 -100.99,353.45 -176.72,984.61 -176.72,984.61 0,0 -16.83,218.81 -244.04,260.88 -227.22,42.07 -286.14,0 -446.03,75.74 -159.89,75.74 -244.04,235.63 -244.04,235.63 0,0 193.55,-109.39 420.77,-33.66 227.22,75.74 370.29,201.97 370.29,201.97 0,0 -26.51,197.28 -81.25,475.14 -520.42,252 -870.41,437.89 -979.1,349.57 -134.65,-109.4 -227.23,-446.02 -420.78,-647.99 -193.55,-201.97 -395.52,-244.05 -395.52,-244.05 0,0 252.47,260.88 260.88,513.35 8.41,252.46 33.67,664.82 -176.72,732.14 -160.01,51.2 -451.47,180.28 -855.82,339.13 -48.02,-262.61 -103.54,-456.94 -103.54,-456.94 0,0 84.15,-235.65 286.12,-294.55 201.97,-58.9 437.61,-16.83 437.61,-16.83 0,0 -134.64,-302.97 -370.28,-260.88 -235.64,42.08 -488.1,58.91 -488.1,58.91 0,0 -471.26,-706.9 -900.45,-1060.35 -429.19,-353.45 -1312.81,-673.23 -1312.81,-673.23 0,0 -67.33,-151.48 8.41,-286.13 75.74,-134.65 201.97,-260.88 201.97,-260.88 0,0 -244.03,-8.41 -361.86,143.07 -117.82,151.48 -244.05,302.96 -244.05,302.96 0,0 -765.8,-58.92 -1304.39,58.9 -538.59,117.82 -1077.17,479.68 -1077.17,479.68 0,0 -176.73,50.49 -218.81,-67.32 -42.07,-117.81 -75.74,-277.71 -75.74,-277.71 0,0 -84.16,143.07 -50.49,311.37 33.67,168.31 25.25,269.29 25.25,269.29 0,0 -176.72,185.13 -269.29,319.78 -92.57,134.65 -168.31,378.7 -168.31,378.7 0,0 -134.64,169.36 -302.96,75.74 -168.32,-93.62 -302.96,-269.29 -302.96,-269.29 0,0 42.06,218.8 210.38,378.7 168.32,159.9 227.23,84.16 294.55,235.64 67.32,151.48 8.41,319.78 168.31,521.75 159.9,201.97 193.55,252.46 193.55,252.46 0,0 0,100.98 -100.99,143.06 -100.99,42.08 -201.97,25.25 -201.97,25.25 0,0 176.72,101 277.71,42.08 100.99,-58.91 151.48,-100.99 151.48,-100.99 0,0 269.3,117.8 420.78,109.39 151.48,-8.41 345.03,-109.4 420.77,-176.72 75.74,-67.32 143.06,151.48 143.06,151.48 0,0 92.58,-151.47 67.33,-210.38 -25.25,-58.91 58.9,-210.39 58.9,-210.39 0,0 33.68,-49.4 56.41,-118.68 -0.55,1.67 187.65,-15.97 305.46,-91.71 117.81,-75.74 370.28,-260.87 496.51,-235.63 126.23,25.25 319.79,92.57 361.87,319.78 42.07,227.22 -92.57,513.35 -92.57,513.35 0,0 227.21,-387.1 134.64,-605.91 -92.57,-218.81 -235.63,-294.54 -395.52,-302.96 -159.9,-8.42 -328.21,92.58 -513.35,201.97 -148.09,87.5 -153.73,85.68 -276.04,102.12 3.71,-43.85 -18.5,-152.61 -68.99,-228.35 -50.49,-75.74 -176.72,-134.64 -277.71,-151.48 -100.99,-16.84 -294.54,25.25 -218.8,218.8 75.74,193.55 228.72,236.01 294.54,252.46 67.32,16.83 126.23,0 126.23,0 0,0 -58.91,193.55 -201.97,269.29 -143.06,75.74 -412.35,201.97 -597.49,126.23 -185.14,-75.74 -521.76,-328.19 -547.01,-589.07 -25.25,-260.88 -50.48,-648 294.55,-1026.69 345.03,-378.7 833.13,-639.58 1102.42,-732.14 269.29,-92.57 50.48,-8.42 218.8,227.22 168.32,235.64 294.55,260.88 294.55,260.88 0,0 -151.48,-244.04 -126.23,-370.28 25.25,-126.23 134.64,-244.05 134.64,-244.05 0,0 849.97,-134.65 1455.88,50.49 605.91,185.14 967.77,446.03 967.77,446.03 0,0 -8.42,193.56 -50.49,252.46 -42.07,58.9 -185.14,193.54 -151.48,437.6 33.67,244.05 75.74,269.3 75.74,269.3 0,0 8.43,-403.94 244.05,-488.1 235.63,-84.16 353.45,-75.74 353.45,-75.74 0,0 715.32,664.82 807.88,1363.3 17.56,132.51 29.07,270.48 35.48,408.16 -55.05,20.75 -111.79,41.82 -170.13,63.11 -622.74,227.22 -1211.83,622.74 -1371.72,530.17 -159.89,-92.57 -302.95,-488.09 -462.84,-614.32 -159.9,-126.23 -538.59,-159.9 -538.59,-159.9 0,0 395.52,210.39 378.7,538.59 -16.83,328.2 -100.99,706.9 -100.99,706.9 0,0 -866.78,496.52 -1228.65,807.88 -361.87,311.37 -1009.85,1085.59 -1136.09,1077.17 -126.23,-8.42 -622.75,-227.21 -824.72,-218.8 -201.97,8.41 -462.84,109.39 -462.84,109.39 0,0 471.25,8.43 614.32,244.05 143.07,235.63 227.22,446.02 185.14,597.49 -42.07,151.48 -302.95,614.32 -420.77,875.2 -117.82,260.88 -277.71,1144.51 -286.13,1405.39 -8.42,260.87 16.84,732.13 84.16,942.52 35.89,112.18 71.79,-0.55 97.48,-130.22l0.78 3.99c0,0 280.43,-757.39 516.07,-925.7 235.64,-168.31 681.65,0 681.65,0 0,0 395.53,336.62 395.53,631.16 0,294.54 58.9,-656.4 -193.56,-925.7 -252.46,-269.3 -286.12,-319.79 -286.12,-319.79 0,0 353.44,-412.35 866.78,-664.81 513.35,-252.46 883.62,-403.94 883.62,-403.94 0,0 260.87,-42.07 429.19,403.94 168.32,446.02 100.99,681.65 100.99,681.65 0,0 235.63,-286.12 201.97,-782.64 -33.66,-496.52 -58.9,-488.1 -58.9,-488.1 0,0 353.45,-42.08 723.73,-109.4 370.28,-67.32 791.06,-227.22 791.06,-227.22 0,0 437.6,84.17 471.26,597.5 33.67,513.34 -67.32,622.74 -67.32,622.74 0,0 387.11,-244.04 353.45,-723.73 -33.67,-479.68 -143.07,-698.49 -143.07,-698.49 0,0 336.63,-151.48 673.24,-370.28 336.61,-218.8 647.99,-547 647.99,-547 0,0 395.52,-25.25 580.67,168.31 185.14,193.56 336.62,656.41 336.62,656.41 0,0 151.48,-555.41 -33.67,-799.46 -185.14,-244.05 -378.69,-513.34 -345.03,-656.41 33.66,-143.07 252.45,-286.12 462.84,-757.39 210.39,-471.27 311.37,-858.38 311.37,-858.38 0,0 159.89,-176.73 395.52,-143.07 235.64,33.67 538.59,319.79 538.59,319.79 0,0 -8.42,-370.29 -235.64,-521.76 -227.22,-151.48 -488.1,-269.3 -479.68,-403.94 3.25,-52.01 36.66,-224.66 80.31,-440.69zm5067.6 -3289.03c-33.73,-10.04 -60.05,-41.33 -90.22,-90.89 -117.81,-193.56 -151.49,-244.05 -286.13,-269.3 -134.64,-25.25 -319.78,-8.41 -319.78,-8.41 0,0 227.22,33.67 252.46,176.72 25.25,143.06 50.5,530.17 -117.81,656.41 -168.32,126.23 -807.89,555.42 -1228.66,807.88 -420.77,252.46 -732.14,547 -875.2,345.03 -143.06,-201.97 -185.14,-378.69 -336.62,-420.77 -151.48,-42.08 -311.37,0 -311.37,0 0,0 185.14,58.9 227.22,193.55 42.07,134.65 67.33,605.92 -100.99,690.07 -168.32,84.15 -883.62,454.42 -1624.19,791.05 -64.89,29.49 -127.91,58.78 -189.09,87.62 54.36,-266.71 109.68,-541.65 138.6,-718.78 67.32,-412.35 143.06,-833.13 143.06,-833.13 0,0 185.15,-100.99 294.55,-75.74 109.39,25.25 319.78,193.56 319.78,193.56 0,0 -25.24,-235.63 -218.8,-378.7 -193.56,-143.07 -252.46,-218.8 -235.64,-302.96 16.83,-84.16 143.06,-740.55 647.99,-1211.82 504.93,-471.27 782.64,-656.41 782.64,-656.41 0,0 302.97,-8.41 395.53,277.71 92.57,286.12 109.39,328.2 109.39,328.2 0,0 134.65,-210.39 58.91,-462.85 -75.74,-252.46 -126.23,-294.54 -75.74,-345.03 50.49,-50.49 361.86,-227.23 875.2,-269.3 513.35,-42.07 782.64,-50.49 782.64,-50.49 0,0 151.48,67.32 126.23,277.71 -25.25,210.39 -50.49,311.37 -50.49,311.37 0,0 143.07,-143.06 185.14,-319.78 42.07,-176.72 67.32,-252.46 143.06,-252.46 75.74,0 336.62,-25.25 513.35,100.99 176.72,126.23 269.29,185.13 218.8,328.2 -50.49,143.07 -25.25,-75.74 -151.48,-143.07 -117.41,-62.62 -201.96,-50.49 -286.12,8.42 -84.16,58.91 -159.9,252.45 -33.67,370.28 126.23,117.82 269.3,143.07 361.87,84.16 92.57,-58.91 50.49,33.67 16.83,269.29 -17.99,125.94 -50.4,319.19 -61.26,511.67z"/>
 </g>
</svg>
