<?xml version="1.0" encoding="utf-8"?>
<!-- Generator: Adobe Illustrator 22.1.0, SVG Export Plug-In . SVG Version: 6.00 Build 0)  -->
<svg version="1.1" id="grid" xmlns="http://www.w3.org/2000/svg" xmlns:xlink="http://www.w3.org/1999/xlink" x="0px" y="0px"
	 viewBox="0 0 64 64" style="enable-background:new 0 0 64 64;" xml:space="preserve">
<g>
	<path d="M55.6,25.1h-0.7c-1,0-1.9-0.6-2.3-1.6c-0.4-1-0.2-2,0.5-2.8l0.5-0.5c1.7-1.7,1.7-4.5,0-6.2L50,10.4c-1.7-1.7-4.5-1.7-6.2,0
		l-0.5,0.5c-0.7,0.7-1.8,0.9-2.8,0.5c-1-0.4-1.6-1.3-1.6-2.3V8.4C38.9,6,37,4,34.5,4h-5.1c-2.4,0-4.4,2-4.4,4.4v0.7
		c0,1-0.6,1.9-1.6,2.3c-1,0.4-2,0.2-2.8-0.5l-0.5-0.5c-1.7-1.7-4.5-1.7-6.2,0L10.4,14c-1.7,1.7-1.7,4.5,0,6.2l0.5,0.5
		c0.7,0.7,0.9,1.8,0.5,2.8c-0.4,1-1.3,1.6-2.3,1.6H8.4C6,25.1,4,27,4,29.5v5.1c0,2.4,2,4.4,4.4,4.4h0.7c1,0,1.9,0.6,2.3,1.6
		c0.4,1,0.2,2-0.5,2.8l-0.5,0.5c-0.8,0.8-1.3,1.9-1.3,3.1s0.5,2.3,1.3,3.1l3.6,3.6c1.7,1.7,4.5,1.7,6.2,0l0.5-0.5
		c0.7-0.7,1.8-0.9,2.8-0.5c1,0.4,1.6,1.3,1.6,2.3v0.7c0,2.4,2,4.4,4.4,4.4h5.1c2.4,0,4.4-2,4.4-4.4v-0.7c0-1,0.6-1.9,1.6-2.3
		c1-0.4,2-0.2,2.8,0.5l0.5,0.5c1.7,1.7,4.5,1.7,6.2,0l3.6-3.6c1.7-1.7,1.7-4.5,0-6.2l-0.5-0.5c-0.7-0.7-0.9-1.8-0.5-2.8
		c0.4-1,1.3-1.6,2.3-1.6h0.7c2.4,0,4.4-2,4.4-4.4v-5.1C60,27,58,25.1,55.6,25.1z M58.1,34.5c0,1.3-1.1,2.4-2.4,2.4h-0.7
		c-1.8,0-3.4,1.1-4.1,2.8c-0.7,1.7-0.3,3.6,0.9,4.9l0.5,0.5c1,1,1,2.5,0,3.5l-3.6,3.6c-1,1-2.5,1-3.5,0l-0.5-0.5
		c-1.3-1.3-3.2-1.6-4.9-0.9c-1.7,0.7-2.8,2.3-2.8,4.1v0.7c0,1.3-1.1,2.4-2.4,2.4h-5.1c-1.3,0-2.4-1.1-2.4-2.4v-0.7
		c0-1.8-1.1-3.4-2.8-4.1c-0.6-0.2-1.2-0.4-1.8-0.4c-1.1,0-2.3,0.4-3.1,1.3l-0.5,0.5c-1,1-2.5,1-3.5,0l-3.6-3.6
		c-0.5-0.5-0.7-1.1-0.7-1.7c0-0.7,0.3-1.3,0.7-1.7l0.5-0.5c1.3-1.3,1.6-3.2,0.9-4.9c-0.7-1.7-2.3-2.8-4.1-2.8H8.4
		c-1.3,0-2.4-1.1-2.4-2.4v-5.1C5.9,28.1,7,27,8.4,27h0.7c1.8,0,3.4-1.1,4.1-2.8c0.7-1.7,0.3-3.6-0.9-4.9l-0.5-0.5c-1-1-1-2.5,0-3.5
		l3.6-3.6c1-1,2.5-1,3.5,0l0.5,0.5c1.3,1.3,3.2,1.6,4.9,0.9c1.7-0.7,2.8-2.3,2.8-4.1V8.4c0-1.3,1.1-2.4,2.4-2.4h5.1
		C35.9,5.9,37,7,37,8.4v0.7c0,1.8,1.1,3.4,2.8,4.1c1.7,0.7,3.6,0.3,4.9-0.9l0.5-0.5c1-1,2.5-1,3.5,0l3.6,3.6c1,1,1,2.5,0,3.5
		l-0.5,0.5c-1.3,1.3-1.6,3.2-0.9,4.9c0.7,1.7,2.3,2.8,4.1,2.8h0.7c1.3,0,2.4,1.1,2.4,2.4V34.5z"/>
	<path d="M32,20.9c-6.1,0-11.1,5-11.1,11.1s5,11.1,11.1,11.1s11.1-5,11.1-11.1S38.1,20.9,32,20.9z M32,41.1c-5,0-9.1-4.1-9.1-9.1
		c0-5,4.1-9.1,9.1-9.1s9.1,4.1,9.1,9.1C41.1,37,37,41.1,32,41.1z"/>
</g>
</svg>
